<?xml version="1.0" encoding="UTF-8"?>
<svg version="1.1" xmlns="http://www.w3.org/2000/svg" width="1920" height="1080">
<path d="M0 0 C1.33278992 0.00303635 1.33278992 0.00303635 2.69250488 0.00613403 C3.5987561 0.00517731 4.50500732 0.00422058 5.4387207 0.00323486 C7.35876535 0.002553 9.27881229 0.00440771 11.19885254 0.00857544 C14.14861192 0.01392361 17.09821902 0.00863066 20.04797363 0.00222778 C21.90865105 0.00288856 23.76932838 0.00416972 25.63000488 0.00613403 C26.51853149 0.0041098 27.40705811 0.00208557 28.32250977 0 C34.546305 0.02399665 34.546305 0.02399665 35.66125488 1.13894653 C37.94819692 1.58081001 40.24112464 1.99180126 42.53625488 2.38894653 C49.49758853 3.70635492 55.34421061 5.8918677 61.66125488 9.13894653 C62.8956262 9.73670258 64.13140093 10.331566 65.36828613 10.92410278 C88.44888272 22.07610033 110.11813733 36.57382784 129.66125488 53.13894653 C130.75566895 54.0477356 130.75566895 54.0477356 131.87219238 54.97488403 C138.26797363 60.39046892 143.44861392 66.605501 148.66125488 73.13894653 C149.24004395 73.82730591 149.81883301 74.51566528 150.41516113 75.22488403 C156.1091618 82.43154579 159.82500677 90.31508765 163.6282959 98.63845825 C166.21151019 104.264761 169.04283115 109.53837439 172.28674316 114.80960083 C174.27291068 118.17550212 175.82910913 121.64276197 177.28625488 125.26394653 C177.58201416 125.99710083 177.87777344 126.73025513 178.18249512 127.48562622 C180.75565668 134.058107 182.63189712 140.71421071 184.11486816 147.60964966 C184.51448762 149.45954131 184.92598841 151.30687743 185.34436035 153.15261841 C191.60479241 180.80116286 194.787066 208.3929005 196.44371033 236.67182922 C196.66083728 240.13229094 196.91630298 243.58772189 197.18591309 247.04446411 C197.27516556 248.19248001 197.36441803 249.34049591 197.45637512 250.52330017 C197.52398544 251.38646347 197.59159576 252.24962677 197.66125488 253.13894653 C199.34110977 253.1322847 199.34110977 253.1322847 201.05490112 253.12548828 C211.73070997 253.08452957 222.4065024 253.05476761 233.08237267 253.03532219 C238.56784779 253.02498835 244.05325832 253.01102531 249.53869629 252.98806763 C297.0374796 252.79454112 297.0374796 252.79454112 317.66125488 255.13894653 C318.48880783 255.23301788 319.31636078 255.32708923 320.16899109 255.42401123 C323.10015944 255.76371256 326.02955522 256.11621099 328.95834351 256.47581482 C334.37273867 257.13029259 339.75290952 257.26671168 345.20251465 257.37869263 C361.40104129 257.7322013 361.40104129 257.7322013 369.35266113 261.93191528 C376.89015261 264.68172032 385.44230565 264.49449885 393.39978027 264.9211731 C395.66125488 265.13894653 395.66125488 265.13894653 398.66125488 266.13894653 C401.3515434 266.36296851 404.02492053 266.53910544 406.71984863 266.67410278 C407.52770309 266.71721588 408.33555756 266.76032898 409.16789246 266.80474854 C411.81124821 266.94295394 414.45489803 267.07320174 417.09875488 267.20144653 C418.00051453 267.24596954 418.90227417 267.29049255 419.83135986 267.33636475 C431.15015419 267.88754191 442.45218825 268.32562754 453.78625488 268.32644653 C455.27790161 268.32753418 455.27790161 268.32753418 456.79968262 268.3286438 C461.4589788 268.29483399 466.10698576 268.18259518 470.75872803 267.91368103 C488.92459507 266.88836532 507.10156147 266.93474172 525.29007006 266.86855507 C530.01134103 266.85014877 534.73258111 266.82581436 539.4538269 266.8019104 C553.43580277 266.73221423 567.41781939 266.67248697 581.39984131 266.61288452 C592.32491895 266.5661432 603.24997661 266.5170431 614.17501295 266.46139765 C619.78205747 266.43310756 625.38909613 266.40949601 630.996176 266.38947296 C634.46967885 266.37609785 637.94315287 266.35868886 641.4166317 266.34016228 C643.0275201 266.33240415 644.63841764 266.32633547 646.24931908 266.32206917 C648.44508056 266.31602513 650.64073014 266.30397915 652.8364563 266.29043579 C654.67958373 266.28270519 654.67958373 266.28270519 656.55994606 266.27481842 C659.49130158 266.25149182 659.49130158 266.25149182 661.59164453 265.64984852 C663.72924041 265.12216369 665.67913024 264.93720437 667.87632942 264.82864285 C669.10825329 264.76703153 669.10825329 264.76703153 670.3650645 264.70417553 C671.24898439 264.66560513 672.13290428 264.62703473 673.04360962 264.58729553 C673.97486196 264.54523198 674.90611429 264.50316843 675.8655864 264.45983022 C686.09111504 264.03087221 696.31057386 263.97898122 706.5435791 263.96536255 C708.64053987 263.95903519 710.73749934 263.9522671 712.8344574 263.94509888 C717.30304562 263.93058629 721.77162922 263.91880012 726.24023056 263.90915108 C733.31989625 263.89351856 740.39951969 263.86957583 747.47915649 263.84425354 C767.5945162 263.77350988 787.70989833 263.71321892 807.82531738 263.66213989 C818.97088131 263.63376554 830.11640135 263.59836087 841.26191914 263.55548614 C848.28677196 263.52887508 855.31157537 263.510873 862.33646846 263.4994489 C866.71517425 263.4902698 871.09382001 263.47288557 875.47249031 263.45326996 C877.48834468 263.4458515 879.5042145 263.44171688 881.52008247 263.44127464 C891.68494587 263.43724672 901.55415557 263.17657542 911.60664558 261.59173489 C915.94966067 260.94796462 920.21606444 260.83735295 924.59875488 260.88894653 C925.86840088 260.89474731 925.86840088 260.89474731 927.16369629 260.90066528 C933.67864571 260.98892048 939.91251512 261.76106369 946.36047363 262.68972778 C951.6772465 263.33979682 956.99883109 263.32995066 962.34875488 263.32644653 C963.29412109 263.32709106 964.2394873 263.3277356 965.21350098 263.32839966 C970.12695885 263.32011315 970.12695885 263.32011315 974.97921753 262.65318298 C977.64959634 262.14118187 980.19349579 261.91167878 982.90710449 261.76589966 C983.92843979 261.70914062 984.94977509 261.65238159 986.00205994 261.59390259 C987.09486771 261.53657959 988.18767548 261.47925659 989.31359863 261.42019653 C990.44648819 261.35739502 991.57937775 261.29459351 992.74659729 261.22988892 C996.36380597 261.02950627 999.98123946 260.83370808 1003.59875488 260.63894653 C1008.35808761 260.38233604 1013.11714792 260.12128545 1017.87609863 259.85769653 C1018.96688217 259.80037354 1020.05766571 259.74305054 1021.1815033 259.68399048 C1026.09177853 259.41194959 1030.81041203 258.9556889 1035.66125488 258.13894653 C1038.99153009 257.89601998 1042.32489012 257.76853697 1045.66125488 257.63894653 C1046.61516113 257.59834106 1047.56906738 257.5577356 1048.55187988 257.51589966 C1052.61415896 257.34309328 1056.67677661 257.17892535 1060.73937988 257.01394653 C1063.71347143 256.89193252 1066.68735523 256.76553821 1069.66125488 256.63894653 C1071.03023926 256.58577271 1071.03023926 256.58577271 1072.42687988 256.53152466 C1073.71852051 256.47641724 1073.71852051 256.47641724 1075.03625488 256.42019653 C1075.78648926 256.38990356 1076.53672363 256.3596106 1077.30969238 256.32839966 C1079.72146798 256.17756698 1079.72146798 256.17756698 1082.29881287 255.62945557 C1086.90581022 254.95739228 1091.43569318 254.99985999 1096.08532715 255.009552 C1097.12180389 255.00779968 1098.15828064 255.00604736 1099.22616577 255.00424194 C1102.64334805 254.99984998 1106.06047835 255.00275188 1109.47766113 255.00613403 C1111.85607412 255.00546028 1114.23448703 255.00448966 1116.61289978 255.00323486 C1121.59346168 255.00176153 1126.57400562 255.00390095 1131.55456543 255.00857544 C1137.93914752 255.0142756 1144.32368761 255.01098958 1150.70826817 255.00500298 C1155.61785702 255.00139019 1160.52743591 255.00253921 1165.43702507 255.00513077 C1167.79136091 255.00579789 1170.14569765 255.00497911 1172.50003242 255.00265121 C1175.78890508 255.00011263 1179.07770957 255.00398226 1182.36657715 255.009552 C1183.33970352 255.00752777 1184.3128299 255.00550354 1185.31544495 255.00341797 C1186.66322021 255.00764771 1186.66322021 255.00764771 1188.03822327 255.01196289 C1188.81487618 255.01233992 1189.5915291 255.01271694 1190.39171696 255.01310539 C1192.89117361 255.15169505 1195.21392212 255.62377414 1197.66125488 256.13894653 C1200.16271605 256.35789049 1202.64768115 256.54013143 1205.15344238 256.67800903 C1205.89077606 256.71995392 1206.62810974 256.7618988 1207.38778687 256.80511475 C1215.0150136 257.2077171 1222.6432608 257.3172353 1230.2791748 257.42971802 C1246.48922832 257.66876479 1262.41379067 258.10201092 1278.44006348 260.77029419 C1289.38622014 262.58703375 1300.25221333 263.42467899 1311.33117676 263.79763794 C1329.956226 264.43391765 1329.956226 264.43391765 1331.66125488 266.13894653 C1333.74009308 266.44236078 1335.82482788 266.70557903 1337.91125488 266.95144653 C1352.53503024 268.99403864 1370.26972522 273.87505364 1379.66125488 286.13894653 C1385.77830895 294.73865042 1386.43999467 301.95861584 1386.03625488 312.32644653 C1386.00607398 313.67339116 1385.97871267 315.02040203 1385.95422363 316.36746216 C1385.88413983 319.6263592 1385.78592886 322.8817589 1385.66125488 326.13894653 C1385.00125488 326.13894653 1384.34125488 326.13894653 1383.66125488 326.13894653 C1383.62000488 326.79894653 1383.57875488 327.45894653 1383.53625488 328.13894653 C1382.10238778 333.05506233 1378.98939763 337.82807397 1374.46203613 340.37722778 C1373.86777832 340.62859497 1373.27352051 340.87996216 1372.66125488 341.13894653 C1372.66125488 341.79894653 1372.66125488 342.45894653 1372.66125488 343.13894653 C1371.26760488 343.93445045 1369.87122058 344.72516492 1368.47375488 345.51394653 C1367.6964502 345.95480591 1366.91914551 346.39566528 1366.11828613 346.84988403 C1360.78840192 349.64616669 1356.37211969 350.55649096 1350.34875488 350.57644653 C1349.56202393 350.57958862 1348.77529297 350.58273071 1347.96472168 350.58596802 C1340.88989487 350.44488268 1334.81168254 348.75258671 1328.21203613 346.33035278 C1322.32293068 344.3543603 1316.41074981 343.99970284 1310.23547363 343.70925903 C1308.79591564 343.63738092 1307.35638197 343.5650143 1305.91687012 343.49221802 C1304.79766678 343.43673294 1304.79766678 343.43673294 1303.65585327 343.38012695 C1291.5938628 342.77271154 1279.59802943 341.9814656 1267.59875488 340.57644653 C1266.51231689 340.44963501 1265.42587891 340.32282349 1264.30651855 340.19216919 C1256.95082857 339.28373338 1256.95082857 339.28373338 1254.66125488 338.13894653 C1252.24894549 337.90812518 1249.86083664 337.73536858 1247.44250488 337.60769653 C1246.69617798 337.56616455 1245.94985107 337.52463257 1245.1809082 337.48184204 C1234.18824443 336.91102054 1223.17878465 336.77919105 1212.17443848 336.58670044 C1209.30536554 336.53529012 1206.43645369 336.47806428 1203.56750488 336.42019653 C1202.68542358 336.40662109 1201.80334229 336.39304565 1200.89453125 336.37905884 C1194.7744193 336.25211095 1194.7744193 336.25211095 1193.66125488 335.13894653 C1191.19206221 334.88450142 1188.75590109 334.70984751 1186.27844238 334.58425903 C1185.45496307 334.54221344 1184.63148376 334.50016785 1183.78305054 334.45684814 C1170.69144687 333.87743211 1157.57581486 333.98929675 1144.47424316 334.00857544 C1140.57618008 334.01426219 1136.6781854 334.01089128 1132.78012466 334.0051384 C1112.42993298 333.97372231 1112.42993298 333.97372231 1092.09094238 334.58425903 C1091.24081573 334.6230014 1090.39068909 334.66174377 1089.51480103 334.70166016 C1085.45548658 334.85131983 1085.45548658 334.85131983 1081.66125488 336.13894653 C1080.22302744 336.27973045 1078.7791204 336.36475022 1077.33508301 336.42019653 C1075.99359192 336.47530396 1075.99359192 336.47530396 1074.625 336.53152466 C1073.17341492 336.58469849 1073.17341492 336.58469849 1071.69250488 336.63894653 C1070.7012561 336.679552 1069.71000732 336.72015747 1068.6887207 336.76199341 C1064.43552114 336.93607848 1060.18192541 337.09948246 1055.92834473 337.26394653 C1052.82873953 337.3852952 1049.72938435 337.5119837 1046.63000488 337.63894653 C1045.1784198 337.69212036 1045.1784198 337.69212036 1043.69750977 337.74636841 C1042.35601868 337.80147583 1042.35601868 337.80147583 1040.98742676 337.85769653 C1040.19848022 337.8879895 1039.40953369 337.91828247 1038.59667969 337.94949341 C1036.5802447 338.03030584 1036.5802447 338.03030584 1034.66125488 339.13894653 C1031.84184231 339.35441444 1029.03969307 339.51652407 1026.21594238 339.63894653 C1025.37209991 339.679552 1024.52825745 339.72015747 1023.65884399 339.76199341 C1020.95149524 339.89188869 1018.2439236 340.01591437 1015.53625488 340.13894653 C1012.85003867 340.26245073 1010.16391422 340.38732331 1007.47793579 340.51589966 C1005.80626591 340.59579645 1004.13445373 340.67278838 1002.4624939 340.74636841 C998.87040523 340.91692378 995.38256173 341.17683196 991.81433105 341.66189575 C986.54603662 342.36393332 981.27627808 342.28196649 975.96984863 342.27175903 C974.86577164 342.27271576 973.76169464 342.27367249 972.62416077 342.2746582 C970.30034325 342.27533593 967.9765238 342.2735102 965.65270996 342.26931763 C962.10668673 342.26395852 958.56078986 342.26927916 955.01477051 342.27566528 C952.74979627 342.27500453 950.48482211 342.27372342 948.21984863 342.27175903 C947.16551132 342.27378326 946.11117401 342.2758075 945.02488708 342.27789307 C939.78822758 342.26129846 934.82303696 342.02040486 929.66125488 341.13894653 C928.16295681 341.05624826 926.66182303 341.0083474 925.16125488 341.01394653 C924.12484863 341.01007935 924.12484863 341.01007935 923.06750488 341.00613403 C920.52953551 341.10500846 920.52953551 341.10500846 917.52555752 341.63777924 C913.47133148 342.16357799 909.50503558 342.28879887 905.42616272 342.29043579 C904.22365125 342.29678441 904.22365125 342.29678441 902.99684662 342.30326128 C900.32451521 342.31622207 897.65221359 342.32229728 894.9798584 342.32839966 C893.05719829 342.33634831 891.13453997 342.34473675 889.21188354 342.35353088 C885.07483502 342.37156246 880.93779035 342.38658834 876.80072212 342.39930725 C870.23638054 342.41961258 863.67208223 342.447261 857.10777283 342.47598267 C843.14645404 342.53602532 829.18510847 342.58775584 815.22375488 342.63894653 C800.20656685 342.69417796 785.18939221 342.75110672 770.17224449 342.81649542 C764.72777158 342.83997967 759.28330532 342.86156874 753.83880806 342.87858582 C726.71574283 342.89396025 726.71574283 342.89396025 699.61198711 343.77607727 C684.32372768 344.50986488 668.99593094 344.35372104 653.69358587 344.409338 C648.95591257 344.42777583 644.21826976 344.45209675 639.48062134 344.47598267 C625.45610357 344.54560798 611.43154564 344.6053781 597.40698242 344.66500854 C586.44575682 344.71178246 575.48455092 344.76090256 564.52336609 344.81649542 C558.90182326 344.84474121 553.2802861 344.86836822 547.65870833 344.8884201 C544.17309089 344.90181899 540.68750184 344.9192266 537.20190811 344.93773079 C535.58863289 344.94547213 533.97534868 344.95154812 532.36206055 344.9558239 C530.15834837 344.96189302 527.95474547 344.97395111 525.75106812 344.98745728 C524.51938337 344.99261101 523.28769863 344.99776474 522.01869011 345.00307465 C518.80945535 345.13294902 515.81671615 345.56403087 512.66125488 346.13894653 C509.91551454 346.35967407 507.18345689 346.54877979 504.43395996 346.69314575 C503.64771901 346.73525618 502.86147806 346.7773666 502.05141163 346.8207531 C493.46682045 347.24669463 484.89123533 347.28416625 476.29797363 347.27175903 C474.6060637 347.27243571 472.91415387 347.27340872 471.22224426 347.2746582 C467.71224015 347.27611611 464.20226182 347.27404166 460.69226074 347.26931763 C456.23020488 347.26359927 451.76820892 347.26692486 447.3061552 347.27289009 C443.82541972 347.27652886 440.34469811 347.27534236 436.86396217 347.2727623 C435.21959234 347.27210332 433.57522117 347.27288468 431.93085289 347.27524185 C408.1976687 347.30183477 408.1976687 347.30183477 399.66125488 345.13894653 C396.42510128 344.81383558 393.17595735 344.70907648 389.92687988 344.57254028 C388.9240094 344.52987534 387.92113892 344.48721039 386.88787842 344.44325256 C378.30626053 344.12148848 369.73233363 344.0771871 361.14562988 344.11160278 C360.4691893 344.11419476 359.79274872 344.11678673 359.09580994 344.11945724 C352.79901802 344.14563288 346.50232983 344.18421035 340.20568848 344.2348938 C320.37830955 344.38851737 300.53011338 344.30177503 280.84246826 341.61846924 C276.62946833 341.08559165 272.46855828 340.96671318 268.22570801 340.93362427 C267.42474701 340.92372467 266.62378601 340.91382507 265.79855347 340.90362549 C263.17989954 340.87231389 260.56122754 340.84737454 257.94250488 340.82254028 C256.11547402 340.80194447 254.28844764 340.78094735 252.46142578 340.75956726 C247.67427218 340.70461772 242.88707752 340.6550899 238.09985352 340.60671997 C233.20622138 340.55630578 228.31264818 340.50072413 223.41906738 340.44558716 C213.83318034 340.33833774 204.24724192 340.2368203 194.66125488 340.13894653 C194.67181412 340.72971985 194.68237335 341.32049316 194.69325256 341.9291687 C194.7371908 346.15295072 194.67450083 350.07533474 193.75109863 354.21707153 C192.33892604 361.38598992 191.80765359 368.61717831 191.22375488 375.88894653 C191.09868734 377.39784514 190.97327276 378.90671502 190.84753418 380.41555786 C189.3664454 398.31639385 188.01012527 416.2277405 186.66125488 434.13894653 C187.28669189 433.93616089 187.91212891 433.73337524 188.55651855 433.52444458 C194.02803842 431.80739287 199.27028476 430.52656411 204.97375488 429.95144653 C205.7330127 429.87249146 206.49227051 429.79353638 207.27453613 429.71218872 C245.3076203 426.14658708 283.32300287 434.65291334 313.72375488 458.61941528 C328.92091738 471.65421556 342.50493311 485.44421324 353.66125488 502.13894653 C354.1523877 502.84793091 354.64352051 503.55691528 355.14953613 504.28738403 C363.87364192 517.69099669 368.51115404 533.92772762 373.01037598 549.14456177 C373.49692518 550.63541716 374.05599549 552.10294773 374.65026855 553.55422974 C393.15208019 600.85649483 389.35772219 674.79902976 371.66125488 722.13894653 C371.26293457 723.22433716 370.86461426 724.30972778 370.45422363 725.42800903 C361.18944448 749.67467623 346.85060552 770.59210936 329.15734863 789.45535278 C327.03065666 791.74179627 324.99052928 794.06881737 322.97375488 796.45144653 C320.12499137 799.74109011 317.02080787 802.54008926 313.70422363 805.34988403 C311.54925037 807.23703079 309.54419773 809.2215818 307.53625488 811.26394653 C304.38488926 814.45253301 301.22942834 817.42033819 297.66125488 820.13894653 C297.00125488 820.13894653 296.34125488 820.13894653 295.66125488 820.13894653 C295.66125488 820.79894653 295.66125488 821.45894653 295.66125488 822.13894653 C294.12930216 823.51106954 292.53204408 824.81049113 290.91125488 826.07644653 C286.57964754 829.53168486 282.45766631 833.1057059 278.41125488 836.88894653 C267.1989814 847.25816519 258.76975946 849.4880703 243.77038574 849.39968872 C241.60026213 849.38895399 239.43096295 849.39963461 237.26086426 849.41238403 C235.86177392 849.41106254 234.46268408 849.40850036 233.06359863 849.40457153 C231.81054932 849.40231567 230.5575 849.40005981 229.26647949 849.3977356 C225.40370092 849.12045888 222.32971466 848.3266771 218.66125488 847.13894653 C218.66125488 846.47894653 218.66125488 845.81894653 218.66125488 845.13894653 C217.91875488 845.05644653 217.17625488 844.97394653 216.41125488 844.88894653 C213.11822894 843.99084855 211.80148701 842.7547858 209.66125488 840.13894653 C209.66125488 839.47894653 209.66125488 838.81894653 209.66125488 838.13894653 C208.67125488 837.80894653 207.68125488 837.47894653 206.66125488 837.13894653 C206.66125488 836.14894653 206.66125488 835.15894653 206.66125488 834.13894653 C205.67125488 833.80894653 204.68125488 833.47894653 203.66125488 833.13894653 C198.9924207 826.07141782 198.94722918 817.66021146 198.97497559 809.48171997 C198.97376354 807.40379007 198.91391866 805.33298522 198.85070801 803.25613403 C198.69456143 791.30484673 202.13738479 781.51735878 210.59875488 772.70144653 C211.93353792 771.49219972 213.28743289 770.30365111 214.66125488 769.13894653 C215.29934082 768.57175903 215.93742676 768.00457153 216.59484863 767.42019653 C217.90010484 766.26463772 219.21412068 765.11890562 220.53625488 763.98269653 C222.90561423 761.92692887 225.21911012 759.81584113 227.53625488 757.70144653 C230.76427085 754.78296635 234.04477735 752.00516156 237.47375488 749.32644653 C241.67629149 746.0111121 245.65899162 742.50830571 249.59875488 738.88894653 C250.43273804 738.12747314 250.43273804 738.12747314 251.28356934 737.35061646 C253.52869369 735.26794782 255.58528261 733.24114532 257.41516113 730.77957153 C258.03197754 729.96746216 258.03197754 729.96746216 258.66125488 729.13894653 C259.32125488 729.13894653 259.98125488 729.13894653 260.66125488 729.13894653 C260.90875488 728.56789185 261.15625488 727.99683716 261.41125488 727.40847778 C262.85691185 724.78370684 264.57799904 722.98038427 266.66125488 720.82644653 C281.55591481 704.56243884 289.83800128 686.00452104 292.26672363 664.12332153 C292.66125488 661.13894653 292.66125488 661.13894653 293.66125488 659.13894653 C296.5258102 638.46330654 298.48884457 614.23628715 291.66125488 594.13894653 C291.39491624 592.35498018 291.18202557 590.56178499 291.03625488 588.76394653 C290.96148926 587.88996216 290.88672363 587.01597778 290.80969238 586.11550903 C290.76070801 585.46324341 290.71172363 584.81097778 290.66125488 584.13894653 C290.00125488 584.13894653 289.34125488 584.13894653 288.66125488 584.13894653 C287.46838077 580.26210566 286.66125488 577.2227273 286.66125488 573.13894653 C286.00125488 573.13894653 285.34125488 573.13894653 284.66125488 573.13894653 C283.82238432 570.70322594 282.98998959 568.26561436 282.16125488 565.82644653 C281.92277832 565.13615356 281.68430176 564.4458606 281.43859863 563.73464966 C280.42917225 560.74963164 279.66125488 558.31235739 279.66125488 555.13894653 C279.00125488 555.13894653 278.34125488 555.13894653 277.66125488 555.13894653 C276.39953613 553.41629028 276.39953613 553.41629028 274.97375488 551.07644653 C272.3751854 547.00856245 269.53361728 543.80130431 265.98156738 540.54910278 C264.66125488 539.13894653 264.66125488 539.13894653 264.66125488 537.13894653 C263.34125488 536.47894653 262.02125488 535.81894653 260.66125488 535.13894653 C260.66125488 534.47894653 260.66125488 533.81894653 260.66125488 533.13894653 C260.14820801 532.90046997 259.63516113 532.66199341 259.10656738 532.41629028 C256.47856701 531.04351693 253.99261357 529.48912367 251.48205566 527.91433716 C245.61336899 524.25616459 240.21953375 521.19239894 233.41906738 519.57644653 C231.66125488 519.13894653 231.66125488 519.13894653 230.66125488 518.13894653 C215.6374547 515.93419598 203.26354584 526.22486635 191.82287598 534.52127075 C185.01699446 539.1188477 185.01699446 539.1188477 181.66125488 546.13894653 C181.57180666 547.98704672 181.53660378 549.83807566 181.53668213 551.68833923 C181.53411911 552.81860535 181.53155609 553.94887146 181.52891541 555.11338806 C181.53206505 556.9683918 181.53206505 556.9683918 181.53527832 558.86087036 C181.5324098 560.86705426 181.52953328 562.87323815 181.5263629 564.87942159 C181.52368215 567.03847548 181.52323791 569.19752148 181.52315521 571.35657692 C181.52200834 575.88951326 181.50911371 580.42236926 181.49359131 584.95527649 C181.49101846 585.72351567 181.4884456 586.49175484 181.48579478 587.28327399 C181.48052713 588.85515918 181.47524165 590.42704431 181.46993876 591.99892938 C181.43504422 602.54357841 181.40824576 613.08813136 181.4107666 623.63284302 C181.41237694 630.75178322 181.39580893 637.87045055 181.36005998 644.98930377 C181.34192123 648.74012339 181.33196369 652.49048987 181.34453583 656.24134254 C181.40285423 675.5481465 179.84362997 693.79674208 176.28226471 712.79381371 C175.10102855 719.15666288 174.00282163 725.53450008 173.16125488 731.95144653 C172.61002573 735.46553237 171.64788342 738.72123687 170.66125488 742.13894653 C170.03491428 744.59693865 169.40994184 747.05527975 168.78625488 749.51394653 C165.65284887 761.39489936 161.09108623 771.91829406 150.66125488 779.13894653 C142.85955375 783.5048909 135.06042845 783.76165555 126.35705566 783.66043091 C124.16436209 783.63897694 121.9749432 783.66032055 119.78234863 783.68582153 C107.89837334 783.71114023 99.36209702 781.56476757 90.57922363 773.23269653 C87.26910646 769.61920813 84.66125488 766.20446658 84.66125488 761.13894653 C84.00125488 761.13894653 83.34125488 761.13894653 82.66125488 761.13894653 C80.95581251 755.61578513 81.39786996 749.71572311 81.36608887 743.98928833 C81.3546899 742.56698564 81.33443525 741.14472147 81.30456543 739.72268677 C81.08196183 729.09865029 82.61746542 720.31744507 85.66125488 710.13894653 C86.30879749 707.30994861 86.80293791 704.50390977 87.28625488 701.63894653 C87.4046875 700.94607544 87.52312012 700.25320435 87.6451416 699.53933716 C88.68004628 693.35518492 89.48614157 687.14515593 90.23156738 680.92019653 C90.66125488 678.13894653 90.66125488 678.13894653 91.66125488 677.13894653 C94.72978655 655.99519546 93.86016155 634.4387906 93.66125488 613.13894653 C92.75504395 613.54089233 91.84883301 613.94283813 90.91516113 614.35696411 C84.27005925 617.27470914 77.70450837 620.0120723 70.66125488 621.82644653 C69.64418457 622.10585083 69.64418457 622.10585083 68.60656738 622.39089966 C67.13916642 622.78462538 65.66678482 623.1600967 64.1907959 623.52029419 C62.37642048 623.96403778 60.57021749 624.4417207 58.77038574 624.94119263 C48.57073749 627.52023893 38.65744754 627.53140525 28.1907959 627.42019653 C25.20491095 627.38874806 22.21955561 627.37918177 19.23352051 627.37332153 C17.31489431 627.36415974 15.39627344 627.35378661 13.47766113 627.34207153 C12.5952626 627.33782166 11.71286407 627.33357178 10.8037262 627.32919312 C3.43910251 627.24447541 -3.27911885 626.32986503 -10.33874512 624.13894653 C-11.33841309 623.83150513 -11.33841309 623.83150513 -12.35827637 623.51785278 C-30.32702034 617.78728038 -30.32702034 617.78728038 -37.33874512 612.13894653 C-37.33874512 611.47894653 -37.33874512 610.81894653 -37.33874512 610.13894653 C-38.06062012 609.89144653 -38.78249512 609.64394653 -39.52624512 609.38894653 C-42.61481093 608.01625062 -44.84885929 606.41541357 -47.33874512 604.13894653 C-47.33874512 603.47894653 -47.33874512 602.81894653 -47.33874512 602.13894653 C-47.93687012 601.87082153 -48.53499512 601.60269653 -49.15124512 601.32644653 C-51.33722365 600.13977247 -52.75207106 599.04295541 -54.33874512 597.13894653 C-54.33874512 596.47894653 -54.33874512 595.81894653 -54.33874512 595.13894653 C-55.32874512 594.80894653 -56.31874512 594.47894653 -57.33874512 594.13894653 C-58.89310568 591.87106046 -60.28831111 589.64266028 -61.65124512 587.26394653 C-62.04787354 586.58501343 -62.44450195 585.90608032 -62.85314941 585.20657349 C-64.0255945 583.1899109 -65.18382657 581.16568524 -66.33874512 579.13894653 C-66.92655762 578.1192981 -67.51437012 577.09964966 -68.11999512 576.04910278 C-76.33874512 561.43566209 -76.33874512 561.43566209 -76.33874512 554.13894653 C-76.99874512 554.13894653 -77.65874512 554.13894653 -78.33874512 554.13894653 C-78.52050293 553.3771106 -78.70226074 552.61527466 -78.88952637 551.83035278 C-80.27588533 546.13561672 -81.756511 540.57699582 -83.78796387 535.07644653 C-84.33874512 533.13894653 -84.33874512 533.13894653 -84.33874512 529.13894653 C-84.99874512 529.13894653 -85.65874512 529.13894653 -86.33874512 529.13894653 C-87.60179847 524.06417859 -88.60910596 519.410983 -88.33874512 514.13894653 C-88.99874512 514.13894653 -89.65874512 514.13894653 -90.33874512 514.13894653 C-95.69821514 491.66490222 -95.69821514 491.66490222 -95.33874512 482.13894653 C-95.99874512 482.13894653 -96.65874512 482.13894653 -97.33874512 482.13894653 C-97.47151855 481.1399231 -97.60429199 480.14089966 -97.74108887 479.11160278 C-97.91769043 477.82125122 -98.09429199 476.53089966 -98.27624512 475.20144653 C-98.45026855 473.9136731 -98.62429199 472.62589966 -98.80358887 471.29910278 C-99.00036935 468.2842834 -99.00036935 468.2842834 -100.33874512 467.13894653 C-100.73021416 464.38642981 -101.05708183 461.65339932 -101.33874512 458.88894653 C-101.4263208 458.0537146 -101.51389648 457.21848267 -101.60412598 456.35794067 C-102.3493519 448.85637011 -102.73545081 441.35233773 -102.99694824 433.8196106 C-103.02853027 432.97495239 -103.0601123 432.13029419 -103.09265137 431.26004028 C-103.11657959 430.51165894 -103.14050781 429.76327759 -103.16516113 428.99221802 C-103.23476005 427.04537118 -103.23476005 427.04537118 -104.33874512 425.13894653 C-104.48392755 423.79629412 -104.57469652 422.4475122 -104.63586426 421.09841919 C-104.67583023 420.26219025 -104.7157962 419.4259613 -104.75697327 418.56439209 C-104.79555954 417.65313568 -104.83414581 416.74187927 -104.87390137 415.80300903 C-104.91687851 414.85445038 -104.95985565 413.90589172 -105.00413513 412.92858887 C-105.09455057 410.90603332 -105.18266034 408.88337362 -105.26867676 406.86062622 C-105.39805437 403.83847955 -105.53673416 400.81687192 -105.67663574 397.79519653 C-106.23770618 385.23480818 -106.45565112 372.71110423 -106.33874512 360.13894653 C-106.99874512 360.13894653 -107.65874512 360.13894653 -108.33874512 360.13894653 C-108.33874512 347.26894653 -108.33874512 334.39894653 -108.33874512 321.13894653 C-113.94874512 321.13894653 -119.55874512 321.13894653 -125.33874512 321.13894653 C-130.5580341 320.04764066 -135.31971619 318.81195618 -140.33874512 317.13894653 C-140.33874512 316.47894653 -140.33874512 315.81894653 -140.33874512 315.13894653 C-141.01937012 315.09769653 -141.69999512 315.05644653 -142.40124512 315.01394653 C-148.83612852 313.09717275 -152.7877342 308.00714034 -156.19812012 302.45925903 C-160.13564033 294.44937202 -160.84032598 287.70072123 -160.78479004 278.84011841 C-160.77628916 276.77464679 -160.80509153 274.71195812 -160.83679199 272.64675903 C-160.90415233 260.20249839 -157.91794153 251.25666393 -149.33874512 242.13894653 C-146.43021411 239.62949304 -144.3056184 238.13894653 -140.33874512 238.13894653 C-140.33874512 237.47894653 -140.33874512 236.81894653 -140.33874512 236.13894653 C-131.83247592 232.77487808 -123.52969305 232.70791464 -114.52624512 232.82644653 C-113.0505787 232.83578632 -111.57491136 232.844981 -110.09924316 232.85403442 C-99.50109435 232.95440272 -89.04843387 233.64549629 -78.52233887 234.89968872 C-73.98052478 235.3973383 -69.41865554 235.62777736 -64.85827637 235.89285278 C-62.33874512 236.13894653 -62.33874512 236.13894653 -60.33874512 237.13894653 C-58.33998375 237.40823357 -56.33439941 237.62756333 -54.32702637 237.82254028 C-53.1009668 237.94451782 -51.87490723 238.06649536 -50.61169434 238.19216919 C-49.30474609 238.31898071 -47.99779785 238.44579224 -46.65124512 238.57644653 C-37.53425402 239.48167378 -28.4494949 240.45127004 -19.37780762 241.73660278 C-15.43134231 242.25907827 -11.47995632 242.59815964 -7.51062012 242.89285278 C-5.33874512 243.13894653 -5.33874512 243.13894653 -2.33874512 244.13894653 C-0.07326011 244.40403528 2.19747155 244.62506429 4.46984863 244.82254028 C5.14361542 244.88229034 5.8173822 244.94204041 6.51156616 245.00360107 C8.70702618 245.19776511 10.90287551 245.38708967 13.09875488 245.57644653 C16.13275711 245.84300969 19.16654313 246.11199026 22.20031738 246.38113403 C23.31703575 246.47972466 23.31703575 246.47972466 24.45631409 246.58030701 C29.96787521 247.06944111 35.47130372 247.6187433 40.97375488 248.20144653 C50.36385487 249.18558851 59.77720685 249.8231934 69.19763184 250.44192505 C70.33804932 250.5185437 71.4784668 250.59516235 72.65344238 250.67410278 C74.17493896 250.77283691 74.17493896 250.77283691 75.72717285 250.87356567 C78.66125488 251.13894653 78.66125488 251.13894653 81.67199707 251.64822388 C84.64025166 252.1354986 87.49297552 252.34229086 90.49719238 252.45535278 C91.56066895 252.49724731 92.62414551 252.53914185 93.71984863 252.58230591 C94.8142627 252.62162231 95.90867676 252.66093872 97.03625488 252.70144653 C98.71268066 252.76622192 98.71268066 252.76622192 100.42297363 252.83230591 C103.16895687 252.93792065 105.91502369 253.04002623 108.66125488 253.13894653 C108.25816217 247.31780232 107.84911479 241.49711956 107.43444824 235.67678833 C107.29412104 233.69513402 107.15544588 231.71336203 107.01843262 229.73147583 C106.8216481 226.88911174 106.61900086 224.0472185 106.41516113 221.20535278 C106.35470108 220.31368912 106.29424103 219.42202545 106.23194885 218.50334167 C106.31130004 214.49403084 106.31130004 214.49403084 104.66125488 211.13894653 C104.30877059 208.76338012 103.99908768 206.3986471 103.72375488 204.01394653 C103.11412976 198.83981734 102.12681249 194.13133162 100.66125488 189.13894653 C100.25434256 187.38004624 99.86092058 185.6179955 99.47766113 183.85379028 C99.27205566 182.91084106 99.0664502 181.96789185 98.85461426 180.99636841 C98.43340809 179.04682282 98.01675283 177.09628853 97.60461426 175.14480591 C96.48233385 170.03685676 95.14585786 165.78218416 92.66125488 161.13894653 C92.66125488 160.14894653 92.66125488 159.15894653 92.66125488 158.13894653 C92.00125488 158.13894653 91.34125488 158.13894653 90.66125488 158.13894653 C90.30934082 157.22371216 89.95742676 156.30847778 89.59484863 155.36550903 C89.1011377 154.17699341 88.60742676 152.98847778 88.09875488 151.76394653 C87.62309082 150.58058716 87.14742676 149.39722778 86.65734863 148.17800903 C84.03512581 144.18566196 82.2546071 144.1480366 77.66125488 143.13894653 C75.25587642 142.90187638 72.84207021 142.7411173 70.42687988 142.64675903 C69.04289579 142.58374313 67.65894487 142.51999525 66.27502441 142.45559692 C65.56170959 142.42483063 64.84839478 142.39406433 64.11346436 142.36236572 C50.97600068 141.77523787 38.40002866 140.55602768 25.66125488 137.13894653 C24.47918457 136.83343872 23.29711426 136.52793091 22.07922363 136.21316528 C19.59524955 135.55389669 17.12490901 134.86973832 14.66125488 134.13894653 C14.66125488 133.47894653 14.66125488 132.81894653 14.66125488 132.13894653 C13.40312988 132.05644653 12.14500488 131.97394653 10.84875488 131.88894653 C5.06928971 131.2387567 0.02911113 129.29918136 -5.33874512 127.13894653 C-6.31069824 126.76640747 -7.28265137 126.39386841 -8.28405762 126.01004028 C-17.03913214 122.54687112 -26.12258422 118.29991409 -33.33874512 112.13894653 C-33.33874512 111.47894653 -33.33874512 110.81894653 -33.33874512 110.13894653 C-35.31874512 109.14894653 -35.31874512 109.14894653 -37.33874512 108.13894653 C-37.33874512 107.47894653 -37.33874512 106.81894653 -37.33874512 106.13894653 C-38.82374512 105.64394653 -38.82374512 105.64394653 -40.33874512 105.13894653 C-54.03140367 88.61439723 -55.25849445 70.97743426 -54.13562012 50.42019653 C-52.61342698 35.72772365 -44.94295298 22.26674263 -33.58874512 12.86941528 C-25.95394565 6.99751222 -19.45280257 3.42367721 -9.89343262 1.64675903 C-1.64079407 0.00632629 -1.64079407 0.00632629 0 0 Z M-21.33874512 330.13894653 C-21.36601438 332.49319329 -21.38571231 334.84711615 -21.40124512 337.20144653 C-21.41284668 338.5124231 -21.42444824 339.82339966 -21.43640137 341.17410278 C-21.43139877 344.97803948 -21.43139877 344.97803948 -20.87097168 348.05300903 C-20.01158512 353.82076454 -19.94939166 359.65952613 -19.72546387 365.47879028 C-19.61405292 368.16275118 -19.50183413 370.84666677 -19.3885498 373.5305481 C-19.35952796 374.22463367 -19.33050611 374.91871923 -19.30060482 375.6338377 C-17.49151875 418.70996599 -14.15304339 461.9116645 -0.06726074 503.01101685 C0.72821609 505.3345343 1.48347836 507.66946035 2.23937988 510.00613403 C7.13484086 526.35227625 7.13484086 526.35227625 18.09875488 538.82644653 C25.98482043 541.7318391 32.47796335 539.60526219 40.09875488 536.95144653 C40.98885254 536.65947388 41.8789502 536.36750122 42.79602051 536.06668091 C58.85894778 530.61068297 71.19547658 520.03233719 83.21594238 508.40847778 C85.21280897 506.47853615 87.16468262 504.74423 89.35656738 503.02566528 C93.1911016 499.92642705 94.48617279 498.18218716 95.32141113 493.20535278 C95.55556794 490.3486398 95.6281626 487.51613444 95.62609863 484.65066528 C95.66125488 481.13894653 95.66125488 481.13894653 96.66125488 478.13894653 C96.82997926 476.05547671 96.94618505 473.9676133 97.03430176 471.87918091 C97.09106079 470.5877417 97.14781982 469.29630249 97.20629883 467.96572876 C97.23458267 467.27602493 97.26286652 466.58632111 97.29200745 465.87571716 C97.38071755 463.71534075 97.47480266 461.55525791 97.5703125 459.39517212 C97.77209204 454.80996467 97.96715233 450.22448454 98.16125488 445.63894653 C98.38617766 440.32530198 98.6138424 435.01180557 98.84877014 429.69859314 C98.94142886 427.56991639 99.02890747 425.44106644 99.11621094 423.31216431 C99.17296997 422.0207251 99.229729 420.72928589 99.28820801 419.39871216 C99.33626587 418.25970459 99.38432373 417.12069702 99.43383789 415.94717407 C99.66125488 413.13894653 99.66125488 413.13894653 100.66125488 410.13894653 C100.87095308 407.56977961 101.03544648 405.01695193 101.16125488 402.44363403 C101.24458598 400.90847766 101.32791938 399.37332142 101.41125488 397.83816528 C101.53749087 395.4174917 101.66213703 392.99674131 101.78625488 390.57595825 C101.90743319 388.23996229 102.03414479 385.90431351 102.16125488 383.56863403 C102.21442871 382.47492996 102.21442871 382.47492996 102.26867676 381.35913086 C102.54832912 376.2518723 102.54832912 376.2518723 103.66125488 375.13894653 C103.87873101 372.95852187 104.03313388 370.77175362 104.16125488 368.58425903 C104.22216309 367.59823196 104.22216309 367.59823196 104.28430176 366.59228516 C104.41436265 364.48307892 104.5384285 362.37358565 104.66125488 360.26394653 C104.7842801 358.16146483 104.90871239 356.05912489 105.03820801 353.95703125 C105.15602876 352.04410964 105.2681493 350.1308395 105.38000488 348.21755981 C105.66125488 345.13894653 105.66125488 345.13894653 106.66125488 342.13894653 C96.36377658 341.19187696 86.06590733 340.28060735 75.74719238 339.59597778 C74.43452393 339.50880493 73.12185547 339.42163208 71.76940918 339.33181763 C69.17477488 339.1628166 66.57988316 338.99771828 63.98474121 338.83670044 C62.79904541 338.75984009 61.61334961 338.68297974 60.39172363 338.60379028 C58.80460571 338.50505615 58.80460571 338.50505615 57.1854248 338.40432739 C54.66125488 338.13894653 54.66125488 338.13894653 52.66125488 337.13894653 C50.65500975 336.9279171 48.64304995 336.77010479 46.63000488 336.63894653 C45.42730957 336.55644653 44.22461426 336.47394653 42.98547363 336.38894653 C41.72348145 336.30644653 40.46148926 336.22394653 39.16125488 336.13894653 C36.67141361 335.97617856 34.18181106 335.8097028 31.69250488 335.63894653 C30.58455566 335.56675903 29.47660645 335.49457153 28.33508301 335.42019653 C25.66125488 335.13894653 25.66125488 335.13894653 23.66125488 334.13894653 C21.77218209 333.93962387 19.87736457 333.79359563 17.98156738 333.67410278 C16.82398926 333.5961145 15.66641113 333.51812622 14.47375488 333.43777466 C12.05457318 333.28273176 9.63530443 333.12903991 7.21594238 332.97683716 C0.50571256 332.52234472 -6.01677326 331.8080016 -12.62438965 330.53909302 C-15.56334112 330.10583691 -18.37223277 330.07379339 -21.33874512 330.13894653 Z " fill="#FEFEFE" transform="translate(244.3387451171875,20.861053466796875)"/>
<path d="M0 0 C0.65742187 0.41507812 1.31484375 0.83015625 1.9921875 1.2578125 C2.69085937 1.69351562 3.38953125 2.12921875 4.109375 2.578125 C9.10908551 6.03075527 13.43676611 10.32466533 16.9921875 15.2578125 C16.9921875 15.9178125 16.9921875 16.5778125 16.9921875 17.2578125 C17.6521875 17.2578125 18.3121875 17.2578125 18.9921875 17.2578125 C23.63213565 26.8755691 24.06689583 36.91037303 24.75854492 47.39111328 C24.79975131 49.26998082 24.79975131 49.26998082 25.9921875 50.2578125 C26.14894787 51.59716906 26.24044765 52.94426848 26.30419922 54.29125977 C26.34553986 55.15186508 26.38688049 56.0124704 26.42947388 56.89915466 C26.48758743 58.31612389 26.48758743 58.31612389 26.546875 59.76171875 C26.58892059 60.74370743 26.63096619 61.72569611 26.67428589 62.73744202 C27.08408972 73.16707797 27.14357875 83.59205921 27.12255859 94.02856445 C27.1171496 97.21765806 27.12257241 100.40661346 27.12890625 103.59570312 C27.14006894 133.96204961 27.14006894 133.96204961 24.9921875 138.2578125 C24.74385843 140.507305 24.54923437 142.76279198 24.37890625 145.01953125 C24.2665445 146.44883939 24.15381648 147.87811878 24.04077148 149.30737305 C23.98218964 150.06351898 23.92360779 150.81966492 23.86325073 151.59872437 C22.84724462 164.58688025 21.60219956 177.52480597 19.9296875 190.4453125 C19.68641724 192.35606567 19.68641724 192.35606567 19.43823242 194.30541992 C18.62428495 200.42922868 17.57916568 206.29182816 15.9921875 212.2578125 C15.62821776 214.39866229 15.29290219 216.54466551 14.9921875 218.6953125 C14.3333358 223.17344514 13.52645867 227.54548602 12.4921875 231.94921875 C11.6760264 235.71758756 11.11021109 239.52643795 10.49609375 243.33203125 C9.92189324 246.66595517 9.19142781 249.94422047 8.42578125 253.23828125 C8.02545521 255.10286288 7.75276493 256.99362617 7.4921875 258.8828125 C6.9921875 262.2578125 6.9921875 262.2578125 6.078125 265.4453125 C4.92773895 269.48407792 4.00350463 273.53032733 3.1171875 277.6328125 C1.7342998 283.93248862 0.329818 290.22612645 -1.1328125 296.5078125 C-1.37040283 297.54301025 -1.37040283 297.54301025 -1.61279297 298.59912109 C-2.27903559 301.44376037 -2.99669976 304.22512798 -3.9375 306.9921875 C-4.90376617 309.94035729 -5.67542364 312.85577597 -6.4140625 315.8671875 C-7.95365111 322.12998638 -9.695521 328.319114 -11.5078125 334.5078125 C-11.80300781 335.53132813 -12.09820313 336.55484375 -12.40234375 337.609375 C-14.97025336 346.4104044 -18.18362844 354.7975131 -21.6953125 363.2578125 C-22.01564453 364.03253906 -22.33597656 364.80726563 -22.66601562 365.60546875 C-23.44544793 367.49006626 -24.22646232 369.37400933 -25.0078125 371.2578125 C-25.6678125 371.2578125 -26.3278125 371.2578125 -27.0078125 371.2578125 C-27.15476562 372.07572266 -27.15476562 372.07572266 -27.3046875 372.91015625 C-28.46780993 378.77590297 -30.39321153 383.88899594 -33.0078125 389.2578125 C-33.6678125 389.2578125 -34.3278125 389.2578125 -35.0078125 389.2578125 C-35.1521875 390.3715625 -35.2965625 391.4853125 -35.4453125 392.6328125 C-36.0078125 396.2578125 -36.0078125 396.2578125 -37.0078125 398.2578125 C-37.6678125 398.2578125 -38.3278125 398.2578125 -39.0078125 398.2578125 C-39.100625 399.44310547 -39.100625 399.44310547 -39.1953125 400.65234375 C-40.30407693 405.57248591 -42.58686147 409.5506139 -45.0078125 413.9453125 C-45.92636127 415.63569738 -46.84310844 417.32706283 -47.7578125 419.01953125 C-48.16515625 419.76162842 -48.5725 420.50372559 -48.9921875 421.26831055 C-50.12971802 423.37404455 -50.12971802 423.37404455 -51.0078125 426.2578125 C-51.6678125 426.2578125 -52.3278125 426.2578125 -53.0078125 426.2578125 C-53.1521875 427.0209375 -53.2965625 427.7840625 -53.4453125 428.5703125 C-54.0078125 431.2578125 -54.0078125 431.2578125 -55.0078125 434.2578125 C-55.6678125 434.2578125 -56.3278125 434.2578125 -57.0078125 434.2578125 C-57.1521875 435.0415625 -57.2965625 435.8253125 -57.4453125 436.6328125 C-58.0078125 439.2578125 -58.0078125 439.2578125 -59.0078125 441.2578125 C-59.6678125 441.2578125 -60.3278125 441.2578125 -61.0078125 441.2578125 C-61.12261963 441.98701904 -61.23742676 442.71622559 -61.35571289 443.4675293 C-62.44701528 448.13712683 -65.03537768 451.96393055 -67.4453125 456.0703125 C-67.94869141 456.95396484 -68.45207031 457.83761719 -68.97070312 458.74804688 C-69.45603516 459.58271484 -69.94136719 460.41738281 -70.44140625 461.27734375 C-70.88540771 462.04151611 -71.32940918 462.80568848 -71.78686523 463.59301758 C-72.18977783 464.1423999 -72.59269043 464.69178223 -73.0078125 465.2578125 C-73.6678125 465.2578125 -74.3278125 465.2578125 -75.0078125 465.2578125 C-75.23082031 466.04671875 -75.45382812 466.835625 -75.68359375 467.6484375 C-77.41544186 472.36887307 -79.75575868 476.61988744 -82.1953125 481.0078125 C-82.69071533 481.9037915 -83.18611816 482.79977051 -83.6965332 483.72290039 C-86.64735218 488.99822834 -89.73412213 494.03972936 -93.328125 498.90625 C-96.14387675 502.84830245 -98.58506434 507.02091524 -101.09765625 511.16015625 C-102.71614058 513.78481488 -104.39051241 516.33987321 -106.1328125 518.8828125 C-108.91975273 522.99867518 -111.28432518 527.29124135 -113.61328125 531.6796875 C-116.44757699 536.91956198 -116.44757699 536.91956198 -118.0078125 539.2578125 C-118.6678125 539.2578125 -119.3278125 539.2578125 -120.0078125 539.2578125 C-120.3378125 540.5778125 -120.6678125 541.8978125 -121.0078125 543.2578125 C-121.6678125 543.2578125 -122.3278125 543.2578125 -123.0078125 543.2578125 C-123.17990234 544.14339844 -123.17990234 544.14339844 -123.35546875 545.046875 C-124.05815368 547.4284299 -124.90365676 548.70246736 -126.4453125 550.6328125 C-128.51345035 553.28542409 -130.52140017 555.96194941 -132.453125 558.71484375 C-133.10003296 559.63547607 -133.10003296 559.63547607 -133.76000977 560.57470703 C-134.61546311 561.79596351 -135.46766784 563.01950381 -136.31616211 564.24560547 C-138.92565218 567.95237962 -141.73060927 571.10037417 -145.0078125 574.2578125 C-146.67848383 576.25446848 -148.34534236 578.25432284 -150.0078125 580.2578125 C-152.1953125 582.6328125 -152.1953125 582.6328125 -154.0078125 584.2578125 C-154.6678125 584.2578125 -155.3278125 584.2578125 -156.0078125 584.2578125 C-156.6678125 585.5778125 -157.3278125 586.8978125 -158.0078125 588.2578125 C-158.6678125 588.2578125 -159.3278125 588.2578125 -160.0078125 588.2578125 C-160.224375 588.83015625 -160.4409375 589.4025 -160.6640625 589.9921875 C-162.45196134 593.00666809 -164.66015524 594.48447708 -167.5078125 596.5078125 C-168.4875 597.21421875 -169.4671875 597.920625 -170.4765625 598.6484375 C-173.0078125 600.2578125 -173.0078125 600.2578125 -175.0078125 600.2578125 C-175.0078125 600.9178125 -175.0078125 601.5778125 -175.0078125 602.2578125 C-176.3278125 602.5878125 -177.6478125 602.9178125 -179.0078125 603.2578125 C-179.0078125 603.9178125 -179.0078125 604.5778125 -179.0078125 605.2578125 C-192.64909704 613.50399094 -206.82639765 620.00198785 -221.90234375 625.171875 C-224.71351709 626.15490165 -227.44808749 627.23561964 -230.1953125 628.3828125 C-234.50441402 630.14336798 -238.85904189 631.39959243 -243.3671875 632.546875 C-245.20821242 633.04253556 -247.03147735 633.60704623 -248.8359375 634.22265625 C-252.51661806 635.42386358 -256.23785888 636.32985182 -260.0078125 637.1953125 C-260.75909424 637.36788574 -261.51037598 637.54045898 -262.28442383 637.71826172 C-263.81254346 638.06812878 -265.34094289 638.41677616 -266.86962891 638.76416016 C-268.73651052 639.19517576 -270.59738301 639.65205479 -272.45703125 640.11328125 C-288.89212838 644.01884715 -306.16062973 644.93513801 -323.0078125 644.2578125 C-323.89533203 644.2273584 -324.78285156 644.1969043 -325.69726562 644.16552734 C-337.88028731 643.67088151 -348.89558265 642.68889466 -359.0078125 635.2578125 C-359.5028125 633.7728125 -359.5028125 633.7728125 -360.0078125 632.2578125 C-360.9978125 631.9278125 -361.9878125 631.5978125 -363.0078125 631.2578125 C-363.0078125 630.5978125 -363.0078125 629.9378125 -363.0078125 629.2578125 C-363.9978125 628.9278125 -364.9878125 628.5978125 -366.0078125 628.2578125 C-374.07073672 619.04004236 -375.8685785 608.40796207 -375.40234375 596.5078125 C-374.49194842 583.92575445 -367.95863143 575.45115733 -359.0078125 567.2578125 C-348.84029336 559.06173334 -337.93284359 558.89399747 -325.4453125 559.1953125 C-308.73768604 559.56453156 -293.62847446 558.14170577 -277.4453125 553.4453125 C-276.18388428 553.08711426 -274.92245605 552.72891602 -273.62280273 552.35986328 C-235.96324437 541.57218438 -210.38552976 526.32668267 -190.27734375 492.06640625 C-189.85839844 491.46957031 -189.43945312 490.87273437 -189.0078125 490.2578125 C-188.3478125 490.2578125 -187.6878125 490.2578125 -187.0078125 490.2578125 C-186.8015625 489.4534375 -186.5953125 488.6490625 -186.3828125 487.8203125 C-184.89060275 483.95413269 -182.92695345 481.00291455 -180.58203125 477.61328125 C-179.08870635 475.37885218 -177.78278051 473.12207357 -176.5078125 470.7578125 C-174.86582995 467.73447956 -173.12409382 464.85679407 -171.1953125 462.0078125 C-163.86186258 451.15504365 -157.39792288 439.79440032 -150.88061523 428.44140625 C-145.98516389 419.92098537 -141.00882773 411.45192084 -135.95629883 403.02368164 C-135.44993896 402.17410889 -134.9435791 401.32453613 -134.421875 400.44921875 C-133.9779541 399.70873291 -133.5340332 398.96824707 -133.07666016 398.20532227 C-131.87132022 396.14703362 -131.87132022 396.14703362 -131.0078125 393.2578125 C-132.2659375 393.2371875 -133.5240625 393.2165625 -134.8203125 393.1953125 C-142.4589338 392.3398833 -149.16615326 387.6290043 -154.2578125 382.0078125 C-155.20553385 380.7811903 -156.12040928 379.5287544 -157.0078125 378.2578125 C-157.54664063 377.49082031 -158.08546875 376.72382812 -158.640625 375.93359375 C-162.02501488 370.85700893 -164.86293243 365.62274086 -167.5078125 360.1328125 C-174.16534635 346.39104443 -182.46963176 333.46164181 -190.5859375 320.546875 C-196.99567822 310.34621998 -202.89738655 300.16859917 -208.0078125 289.2578125 C-208.65582415 287.891725 -209.30427047 286.52584361 -209.953125 285.16015625 C-211.29253063 282.33211953 -212.62218497 279.49974928 -213.9453125 276.6640625 C-215.34898145 273.65773705 -216.76630004 270.65842431 -218.1953125 267.6640625 C-222.01768033 259.65151881 -225.76783302 251.61624516 -229.3828125 243.5078125 C-233.0177285 235.36066926 -236.82633405 227.30751979 -240.69946289 219.27124023 C-244.82588142 210.69004287 -248.81914596 202.05025949 -252.77270508 193.38818359 C-255.60660939 187.202534 -258.55618309 181.09548287 -261.65112305 175.03588867 C-263.05967631 172.15161162 -264.30110096 169.23160418 -265.5078125 166.2578125 C-267.58830853 161.14630628 -269.96175815 156.25202335 -272.46484375 151.3359375 C-274.62105593 147.03443068 -276.63131791 142.67176267 -278.625 138.29296875 C-279.46934874 136.43969481 -280.32576205 134.59178093 -281.203125 132.75390625 C-283.58266456 127.68636829 -285.0178819 122.76755779 -286.0078125 117.2578125 C-286.6678125 117.2578125 -287.3278125 117.2578125 -288.0078125 117.2578125 C-288.17796875 116.71253906 -288.348125 116.16726563 -288.5234375 115.60546875 C-288.76578125 114.85136719 -289.008125 114.09726562 -289.2578125 113.3203125 C-289.48984375 112.58941406 -289.721875 111.85851562 -289.9609375 111.10546875 C-290.84777943 108.69312635 -291.84113386 106.43321889 -292.921875 104.10546875 C-295.18453529 99.07750839 -296.68639096 93.94401118 -298.1328125 88.6328125 C-298.38417969 87.73046875 -298.63554688 86.828125 -298.89453125 85.8984375 C-299.38295451 84.14420527 -299.86685798 82.38870682 -300.34570312 80.63183594 C-300.91461122 78.59198993 -301.53804024 76.56748917 -302.171875 74.546875 C-304.16662141 66.69838678 -303.94421478 57.83063943 -301.0078125 50.2578125 C-300.5953125 49.1234375 -300.1828125 47.9890625 -299.7578125 46.8203125 C-294.74846524 36.62271271 -286.71863929 28.3143206 -276.1484375 23.94921875 C-263.30289814 19.8002033 -250.17795623 21.94643196 -238.40234375 27.84375 C-227.97769767 33.99990315 -222.38154183 43.9458965 -219.0078125 55.2578125 C-218.67136719 56.34707031 -218.33492187 57.43632812 -217.98828125 58.55859375 C-217.29984229 60.79408654 -216.61614753 63.03104655 -215.9375 65.26953125 C-214.77662705 69.0009086 -213.42948531 72.62019897 -212.0078125 76.2578125 C-211.66105469 77.19753906 -211.31429688 78.13726562 -210.95703125 79.10546875 C-208.00858603 87.00960691 -204.60410207 94.63336286 -200.97119141 102.23828125 C-199.26172908 105.82182722 -197.5734691 109.41536641 -195.8828125 113.0078125 C-195.54217773 113.73049316 -195.20154297 114.45317383 -194.85058594 115.19775391 C-192.6152003 119.94604385 -190.42495387 124.71267979 -188.265625 129.49609375 C-186.52310156 133.32206912 -184.73272687 137.12530837 -182.94726562 140.93139648 C-180.67730574 145.78652124 -178.46078959 150.66463333 -176.25415039 155.54882812 C-172.79814665 163.19703338 -169.31435611 170.80338803 -165.5 178.28125 C-160.6014719 188.05265946 -156.0924363 198.02976708 -151.52539062 207.95898438 C-149.02490328 213.39440668 -146.51593502 218.82591015 -144.0078125 224.2578125 C-143.47784668 225.40620605 -142.94788086 226.55459961 -142.40185547 227.73779297 C-140.77254273 231.26624409 -139.14040193 234.79337644 -137.5078125 238.3203125 C-136.96511719 239.49658203 -136.42242188 240.67285156 -135.86328125 241.88476562 C-130.51330741 253.43381416 -124.98351938 264.63038333 -118.2578125 275.4453125 C-117.02241973 277.45249893 -115.7880525 279.46031691 -114.5546875 281.46875 C-113.95333984 282.44682617 -113.35199219 283.42490234 -112.73242188 284.43261719 C-110.27875689 288.45212613 -107.88503642 292.50525035 -105.5078125 296.5703125 C-104.90815674 297.59535889 -104.90815674 297.59535889 -104.29638672 298.64111328 C-103.54676442 299.92278689 -102.79724636 301.20452148 -102.04785156 302.48632812 C-99.73299015 306.42920005 -97.37000546 310.34319954 -95.0078125 314.2578125 C-83.19516299 279.74106867 -76.71704796 243.65455199 -69.97705078 207.88208008 C-69.79368164 206.90993057 -69.6103125 205.93778107 -69.42138672 204.93617249 C-69.08017182 203.12390976 -68.74037268 201.31137959 -68.40234375 199.4985199 C-67.49935388 194.69358862 -66.51256965 189.91930845 -65.41612244 185.15460205 C-64.92294487 182.8635629 -64.64122633 180.59210493 -64.4453125 178.2578125 C-64.11407436 174.36407436 -64.11407436 174.36407436 -63.0078125 173.2578125 C-62.71700873 170.57111302 -62.48415003 167.90115502 -62.2890625 165.20703125 C-62.22626099 164.39667923 -62.16345947 163.58632721 -62.09875488 162.75141907 C-61.89745404 160.1496932 -61.70210038 157.54757084 -61.5078125 154.9453125 C-61.31314273 152.35380122 -61.11710951 149.76242811 -60.91687012 147.17134094 C-60.79217688 145.55667753 -60.67071913 143.94176024 -60.55285645 142.32658386 C-60.28597287 138.86005691 -59.87918597 135.61642425 -59.0078125 132.2578125 C-57.61971851 121.42676924 -57.85466041 110.45394108 -57.87744141 99.55761719 C-57.88277705 96.52794331 -57.87748131 93.49841925 -57.87109375 90.46875 C-57.61599996 70.7531997 -57.61599996 70.7531997 -60.0078125 51.2578125 C-61.02626908 39.17040886 -60.90281538 28.10069868 -55.0078125 17.2578125 C-54.63527344 16.566875 -54.26273438 15.8759375 -53.87890625 15.1640625 C-50.66035711 10.05027014 -45.96246931 6.5913604 -41.0078125 3.2578125 C-39.76451172 2.37996094 -39.76451172 2.37996094 -38.49609375 1.484375 C-27.94848606 -4.9254408 -11.15287314 -5.67566142 0 0 Z " fill="#FEFEFE" transform="translate(1391.0078125,402.7421875)"/>
<path d="M0 0 C1.06903564 0.00241699 1.06903564 0.00241699 2.15966797 0.00488281 C7.8086863 0.13676651 11.62802651 1.13711303 16.1875 4.375 C17.08082031 4.91253906 17.08082031 4.91253906 17.9921875 5.4609375 C19.6875 6.5 19.6875 6.5 22.1875 8.375 C22.1875 9.035 22.1875 9.695 22.1875 10.375 C23.04214844 10.70757812 23.04214844 10.70757812 23.9140625 11.046875 C32.82738206 16.2539689 38.01601623 29.12931851 41.1875 38.375 C42.05172087 41.69828412 42.68985469 44.9813659 43.1875 48.375 C43.9923584 47.82972656 43.9923584 47.82972656 44.81347656 47.2734375 C61.85270647 35.81108362 78.9476452 26.58994555 98.1875 19.375 C99.01894531 19.03597656 99.85039063 18.69695312 100.70703125 18.34765625 C134.04348583 5.27556619 171.12525001 3.96487442 205.1875 14.375 C206.68410156 14.80232422 206.68410156 14.80232422 208.2109375 15.23828125 C233.92408726 23.06252387 260.01336089 40.85148038 279.1875 59.375 C279.1875 60.035 279.1875 60.695 279.1875 61.375 C279.75726562 61.60574219 280.32703125 61.83648437 280.9140625 62.07421875 C283.76287768 63.70421094 285.43271289 65.69527543 287.5625 68.1875 C291.18097745 72.3339251 291.18097745 72.3339251 295.3125 75.9375 C299.26877073 79.29172953 302.11939706 83.21529833 305.1875 87.375 C305.85136719 88.24640625 306.51523438 89.1178125 307.19921875 90.015625 C319.11052084 105.89736112 325.69974503 123.46401689 330.67626953 142.5 C331.31117816 144.82860472 332.06997206 147.10009517 332.875 149.375 C336.96289431 161.52254956 339.39549806 177.32457198 334.03369141 189.41455078 C331.12208394 195.09539264 327.48472619 200.65715787 322.1875 204.375 C321.5275 204.375 320.8675 204.375 320.1875 204.375 C320.1875 205.035 320.1875 205.695 320.1875 206.375 C313.17768858 210.2535251 307.26193282 213.27460741 299.1875 213.375 C298.41019531 213.43558594 297.63289063 213.49617187 296.83203125 213.55859375 C285.89599442 214.13234449 277.33745772 210.16308289 269.05078125 203.27734375 C267.1875 201.375 267.1875 201.375 266.1875 198.375 C265.5275 198.375 264.8675 198.375 264.1875 198.375 C258.40202448 191.19566404 256.20230188 182.67383034 254.0546875 173.90625 C253.76851562 172.7409375 253.48234375 171.575625 253.1875 170.375 C253.02024414 169.69050781 252.85298828 169.00601563 252.68066406 168.30078125 C250.27557938 158.61184829 247.37868315 149.90426433 242.640625 141.09765625 C241.1875 138.375 241.1875 138.375 240.1875 135.375 C238.86042296 134.69596483 237.52611621 134.03099456 236.1875 133.375 C234.37109375 131.53515625 234.37109375 131.53515625 232.625 129.4375 C230.15559867 126.49193957 230.15559867 126.49193957 227.47265625 123.74609375 C226.1875 122.375 226.1875 122.375 226.1875 120.375 C225.62289063 120.12105469 225.05828125 119.86710938 224.4765625 119.60546875 C221.88924826 118.21467697 219.82369345 116.56200727 217.5625 114.6875 C212.59133063 110.65976424 207.50919664 106.9253761 202.1875 103.375 C201.176875 102.69050781 200.16625 102.00601563 199.125 101.30078125 C185.31129393 92.3185517 168.67720978 87.45368978 152.1875 90.375 C151.06988281 90.56191406 149.95226563 90.74882813 148.80078125 90.94140625 C129.25802299 94.51505588 107.84333419 101.04331206 92.625 114.3125 C90.1875 116.375 90.1875 116.375 87.1875 116.375 C87.105 116.9525 87.0225 117.53 86.9375 118.125 C85.96952213 121.0289336 84.50055716 122.41240604 82.1875 124.375 C81.5275 124.375 80.8675 124.375 80.1875 124.375 C79.8575 125.365 79.5275 126.355 79.1875 127.375 C78.1975 127.375 77.2075 127.375 76.1875 127.375 C75.8575 128.695 75.5275 130.015 75.1875 131.375 C74.5275 131.375 73.8675 131.375 73.1875 131.375 C72.8575 132.365 72.5275 133.355 72.1875 134.375 C77.40038192 136.76423755 82.2563923 137.72403739 87.9375 138.3125 C102.90246647 139.91203526 114.23180958 144.91869498 124.1875 156.375 C131.92193709 167.42419584 132.63661255 178.1218098 131.1875 191.375 C130.02718304 195.83853434 127.82954375 199.61727456 125.1875 203.375 C124.5275 204.365 123.8675 205.355 123.1875 206.375 C122.5275 206.375 121.8675 206.375 121.1875 206.375 C120.98125 206.931875 120.775 207.48875 120.5625 208.0625 C116.68093523 214.59058621 109.3810805 217.88582304 102.30664062 219.91430664 C98.6675365 220.70543446 95.02310464 220.5595457 91.3125 220.5625 C90.54164063 220.57474609 89.77078125 220.58699219 88.9765625 220.59960938 C79.18249661 220.62345856 69.60535528 218.81688627 59.98828125 217.12109375 C44.87896302 214.45839423 30.26491129 212.75497426 14.8828125 212.515625 C9.92832362 212.43385827 5.0941852 212.05301917 0.1875 211.375 C-0.82054687 211.24222656 -1.82859375 211.10945312 -2.8671875 210.97265625 C-16.23736183 208.43565641 -33.03807706 200.93072727 -40.9375 189.375 C-46.56261865 180.50178134 -49.9120052 168.68124549 -48.33105469 158.17578125 C-47.82578066 154.47234149 -47.60819188 150.88290668 -47.49609375 147.1484375 C-47.47531265 146.47890045 -47.45453156 145.8093634 -47.43312073 145.11953735 C-47.39016064 143.709467 -47.34908482 142.29933809 -47.30981445 140.88916016 C-47.2507328 138.7762073 -47.1854564 136.66351811 -47.11914062 134.55078125 C-46.93392643 128.42274993 -46.79277665 122.30352351 -46.84375 116.171875 C-46.87422356 107.78840286 -46.42598853 99.42522938 -46.01293945 91.05419922 C-45.87492891 88.24855476 -45.74278856 85.44267695 -45.61132812 82.63671875 C-44.44922678 58.28518033 -44.44922678 58.28518033 -42.8125 53.375 C-42.62194912 51.37421574 -42.43417634 49.37307869 -42.26806641 47.37011719 C-40.85397828 31.06611772 -35.60386742 18.17394259 -22.8125 7.375 C-19.58996269 5.39557797 -16.30552506 3.81500536 -12.8125 2.375 C-12.05066406 2.01019531 -11.28882813 1.64539063 -10.50390625 1.26953125 C-6.99861893 0.10449381 -3.65607292 -0.00854422 0 0 Z " fill="#00FACD" transform="translate(1508.8125,421.625)"/>
<path d="M0 0 C0.79519043 0.00128906 1.59038086 0.00257813 2.40966797 0.00390625 C8.19226275 0.09868346 12.85992466 0.94468874 18.1875 3.3125 C18.1875 3.9725 18.1875 4.6325 18.1875 5.3125 C19.25484375 5.41884766 19.25484375 5.41884766 20.34375 5.52734375 C24.02859885 6.54472647 25.88226344 8.29433996 28.6875 10.875 C29.6053125 11.70128906 30.523125 12.52757812 31.46875 13.37890625 C37.10318592 19.45859213 40.44839911 26.64718784 43.875 34.125 C44.64759491 35.79916847 45.42224996 37.47238817 46.19921875 39.14453125 C46.53397217 39.87389893 46.86872559 40.6032666 47.21362305 41.35473633 C48.2529886 43.54730428 48.2529886 43.54730428 50.1875 46.3125 C50.744375 45.67183594 51.30125 45.03117187 51.875 44.37109375 C67.26848205 26.92341392 85.01799562 16.16400246 107.1875 9.3125 C108.10789062 9.0134375 109.02828125 8.714375 109.9765625 8.40625 C115.27521523 6.72413802 120.54565575 5.61989165 126.03515625 4.7421875 C128.15997972 4.52501714 128.15997972 4.52501714 129.1875 3.3125 C149.79255476 -1.17102032 177.65878788 -3.47761888 196.61328125 7.52734375 C206.1630242 14.14985138 213.18770379 21.29545983 216.0625 32.8203125 C217.98923187 44.35661955 217.91619405 57.28630025 211.1875 67.3125 C210.77757812 67.97507812 210.36765625 68.63765625 209.9453125 69.3203125 C203.31015934 79.17932539 193.58507393 83.9096098 182.1875 86.3125 C176.83843784 86.68707371 171.53885641 86.56829272 166.1875 86.375 C156.06661085 86.03579919 147.01129108 86.59999208 137.1875 89.3125 C135.25101819 89.75448496 133.31365636 90.19265288 131.375 90.625 C123.87291135 92.71377395 118.68041095 97.02777338 114.1875 103.3125 C113.06670822 105.71028193 112.06036581 108.03500286 111.125 110.5 C110.737677 111.49737183 110.737677 111.49737183 110.3425293 112.51489258 C108.35273164 117.71051029 106.61354215 122.93282005 105.1875 128.3125 C104.92066406 129.28960938 104.65382813 130.26671875 104.37890625 131.2734375 C101.41975528 142.51537946 100.95281576 153.46133906 100.58203125 165.04492188 C100.54464844 166.08068359 100.50726562 167.11644531 100.46875 168.18359375 C100.43845703 169.12130615 100.40816406 170.05901855 100.37695312 171.02514648 C100.1875 173.3125 100.1875 173.3125 99.1875 175.3125 C98.94623652 177.12342947 98.71934394 178.93628507 98.5 180.75 C97.47362438 187.28722318 94.99639969 194.50360031 90.1875 199.3125 C89.96363502 206.36063628 90.49800477 213.29548953 91.125 220.3125 C91.21201172 221.36050781 91.29902344 222.40851563 91.38867188 223.48828125 C91.47568359 224.48214844 91.56269531 225.47601562 91.65234375 226.5 C91.730896 227.40105469 91.80944824 228.30210937 91.89038086 229.23046875 C91.97294322 231.29798262 91.97294322 231.29798262 93.1875 232.3125 C93.46702225 234.92010061 93.6877267 237.51011527 93.87109375 240.125 C93.93152359 240.92671631 93.99195343 241.72843262 94.05421448 242.55444336 C94.24880931 245.14016109 94.43748316 247.72625998 94.625 250.3125 C95.43746208 261.46587644 96.3622175 272.57012434 97.75 283.66821289 C98.25511349 287.87570675 98.62531573 292.08330211 98.94140625 296.30859375 C99.08244176 298.38143021 99.08244176 298.38143021 100.1875 300.3125 C100.51343123 302.66216784 100.7977343 305.01765631 101.0625 307.375 C101.75583968 313.24074698 102.58995368 319.05963 103.625 324.875 C103.75173096 325.58841553 103.87846191 326.30183105 104.0090332 327.03686523 C104.60890408 330.34386502 105.25638166 333.62655944 105.9765625 336.91015625 C110.05525105 355.51144799 113.89524366 376.3610039 103.1875 393.3125 C101.35709329 395.81750378 99.51579066 398.25049478 97.1875 400.3125 C96.5275 400.3125 95.8675 400.3125 95.1875 400.3125 C95.1875 400.9725 95.1875 401.6325 95.1875 402.3125 C93.1070946 403.46393825 91.02348003 404.60874112 88.9375 405.75 C88.05771484 406.23823242 88.05771484 406.23823242 87.16015625 406.73632812 C77.30412536 412.10731125 64.30346184 411.85291413 53.48828125 409.51171875 C43.66856087 405.77637414 35.73251153 398.76612398 31.1875 389.3125 C30.69169434 388.52915283 30.19588867 387.74580566 29.68505859 386.9387207 C24.53700516 377.91074372 24.05446394 365.80363706 22.5625 355.625 C22.23913777 353.43292166 21.9140414 351.2411616 21.58389282 349.0500946 C21.28901709 347.09174931 21.00053089 345.13244506 20.71240234 343.1730957 C20.48771322 340.42342128 20.48771322 340.42342128 19.1875 339.3125 C18.90149756 337.54856874 18.67253068 335.77530964 18.46875 334 C18.34113281 332.92492187 18.21351563 331.84984375 18.08203125 330.7421875 C17.81901042 328.45572917 17.55598958 326.16927083 17.29296875 323.8828125 C17.16535156 322.80773437 17.03773438 321.73265625 16.90625 320.625 C16.79216797 319.63113281 16.67808594 318.63726563 16.56054688 317.61328125 C16.42446676 315.35452686 16.42446676 315.35452686 15.1875 314.3125 C14.89730517 311.82096467 14.66440776 309.34708787 14.46875 306.84765625 C14.40594849 306.09914902 14.34314697 305.35064178 14.27844238 304.57945251 C14.0771672 302.17830153 13.88171014 299.77673211 13.6875 297.375 C13.43178805 294.2196408 13.17059434 291.06480249 12.90625 287.91015625 C12.848927 287.17990738 12.791604 286.44965851 12.73254395 285.69728088 C12.45748758 281.87981415 12.45748758 281.87981415 11.1875 278.3125 C10.90169557 275.26722385 10.66674895 272.23481949 10.46875 269.18359375 C10.40594849 268.27875748 10.34314697 267.3739212 10.27844238 266.44166565 C10.00906952 262.55992992 9.74957683 258.67755046 9.48974609 254.79516602 C9.29897589 251.96603912 9.10279011 249.13732469 8.90625 246.30859375 C8.848927 245.42320419 8.791604 244.53781464 8.73254395 243.62559509 C8.8250216 239.64385465 8.8250216 239.64385465 7.1875 236.3125 C6.89706058 233.66357083 6.66418246 231.03139817 6.46875 228.375 C6.40594849 227.579729 6.34314697 226.78445801 6.27844238 225.96508789 C6.00878434 222.54852557 5.74980027 219.13117173 5.48974609 215.71386719 C5.29888835 213.22561267 5.1027097 210.73781743 4.90625 208.25 C4.848927 207.47084229 4.791604 206.69168457 4.73254395 205.88891602 C4.75213089 202.29776467 4.75213089 202.29776467 3.1875 199.3125 C2.97168127 197.54698287 2.81634982 195.77398596 2.6875 194 C2.605 192.92492187 2.5225 191.84984375 2.4375 190.7421875 C2.27083333 188.45572917 2.10416667 186.16927083 1.9375 183.8828125 C1.855 182.80773437 1.7725 181.73265625 1.6875 180.625 C1.57921875 179.13419922 1.57921875 179.13419922 1.46875 177.61328125 C1.43206843 175.35170732 1.43206843 175.35170732 0.1875 174.3125 C-0.0939307 172.50461366 -0.33583756 170.69056613 -0.5625 168.875 C-1.86302536 160.12255923 -4.32461041 151.79051059 -6.8125 143.3125 C-7.39362677 141.31391765 -7.97433716 139.3152142 -8.5546875 137.31640625 C-9.75725246 133.17888282 -10.9682624 129.0439454 -12.18359375 124.91015625 C-13.14375078 121.63377803 -14.08468925 118.3552618 -14.97265625 115.05859375 C-16.68403707 108.74657784 -18.70373374 102.95932001 -21.54296875 97.06640625 C-22.88646038 94.15206287 -23.97410424 91.20583464 -25.0625 88.1875 C-27.10522572 82.74671624 -29.61320179 77.72301519 -32.375 72.625 C-40.58585307 57.4540872 -44.05853621 44.42531259 -39.8125 27.3125 C-38.9451677 24.87127688 -37.95263962 22.64460376 -36.8125 20.3125 C-36.1525 20.3125 -35.4925 20.3125 -34.8125 20.3125 C-34.5546875 19.57 -34.296875 18.8275 -34.03125 18.0625 C-29.96404197 8.8852101 -20.85514293 4.75527055 -12.05859375 1.19921875 C-7.9686558 0.08199142 -4.22020551 -0.02818756 0 0 Z " fill="#FEFEFE" transform="translate(672.8125,436.6875)"/>
<path d="M0 0 C2.6875 2.3125 2.6875 2.3125 5 5 C5.44601562 5.5053125 5.89203125 6.010625 6.3515625 6.53125 C9.83739805 10.78135965 12.2530271 15.37966262 14.625 20.3125 C21.51300747 34.5376961 29.71441914 47.8513326 41 59 C41.81726562 59.84046875 42.63453125 60.6809375 43.4765625 61.546875 C58.7519087 76.39659236 79.34685916 82.27678362 99 89 C99.96309082 89.32983887 100.92618164 89.65967773 101.91845703 89.99951172 C106.93230809 91.70901026 111.95167943 93.39494856 117 95 C118.08539062 95.34804688 119.17078125 95.69609375 120.2890625 96.0546875 C138.09291857 100.58998557 162.42607554 104.20471474 179.0859375 94.8203125 C183.16376316 92.3677003 187.09445552 89.71626214 191 87 C192.06734375 86.27039063 193.1346875 85.54078125 194.234375 84.7890625 C196.50761439 83.21577535 198.76289295 81.62405368 201 80 C198.10754261 78.38822918 195.71947352 77.66551622 192.4375 77.2890625 C191.56367676 77.18102295 190.68985352 77.0729834 189.78955078 76.96166992 C188.86899902 76.85056885 187.94844727 76.73946777 187 76.625 C175.57051306 75.09787672 165.27649124 73.65269539 157 65 C157 64.34 157 63.68 157 63 C156.41476562 62.8040625 155.82953125 62.608125 155.2265625 62.40625 C152.10916175 60.43736532 150.91582208 57.73002906 149.375 54.5 C148.91770508 53.55386841 148.91770508 53.55386841 148.45117188 52.58862305 C143.83214148 42.69267748 142.54944458 33.24664245 146.09375 22.765625 C151.03730051 11.0658888 158.53699308 2.3512144 170.08984375 -2.9609375 C197.83339715 -13.29956082 237.08818813 2.88412603 262.13183594 14.18066406 C264.6123397 15.26855881 267.14417738 16.19526575 269.6875 17.125 C280.91776654 21.65992566 288.20122613 31.06161838 293 42 C293.58984375 44.96484375 293.58984375 44.96484375 293.9375 47.9375 C294.7314278 53.30974477 296.15635069 56.43292687 299 61 C304.37749725 74.75708036 308.1868396 89.71324633 309.67578125 104.39453125 C309.71968012 106.92447263 309.71968012 106.92447263 311 108 C311.08843793 110.44830426 311.11528752 112.86820599 311.09765625 115.31640625 C311.09553383 116.41298805 311.09553383 116.41298805 311.09336853 117.53172302 C311.08775408 119.87535632 311.07519922 122.21889539 311.0625 124.5625 C311.05748686 126.14778508 311.05292363 127.73307166 311.04882812 129.31835938 C311.03777997 133.2122761 311.02050572 137.10612205 311 141 C310.34 141 309.68 141 309 141 C309.061875 141.969375 309.12375 142.93875 309.1875 143.9375 C309.1875 148.64906287 307.65156106 152.6383774 306 157 C305.73703125 157.71800781 305.4740625 158.43601562 305.203125 159.17578125 C303.86235879 162.80816318 302.45734972 166.41267762 301 170 C300.34 170 299.68 170 299 170 C298.82017578 170.88171875 298.82017578 170.88171875 298.63671875 171.78125 C296.85603949 177.98631637 292.39305745 181.78711471 287 185 C286.10196655 185.78322632 286.10196655 185.78322632 285.18579102 186.58227539 C280.77290296 189.44451609 275.03585475 188.46750637 269.9375 188.4375 C268.75994141 188.45748047 267.58238281 188.47746094 266.36914062 188.49804688 C258.48877651 188.49368585 252.19380232 187.22708344 245 184 C245 183.34 245 182.68 245 182 C244.01 181.67 243.02 181.34 242 181 C242 180.34 242 179.68 242 179 C241.06607422 178.70029297 241.06607422 178.70029297 240.11328125 178.39453125 C237.01220273 176.34816335 236.94335506 174.25659101 236.1875 170.6875 C235.93355469 169.55699219 235.67960937 168.42648437 235.41796875 167.26171875 C235.01770661 164.13817776 235.16985912 162.00996658 236 159 C229.8689548 160.83824636 224.44667085 163.18468383 218.875 166.3125 C179.69861732 187.44537973 135.99793462 185.23569679 94 174 C89.20906676 172.50737632 84.47893182 170.86509077 79.75 169.1875 C78.46535942 168.73668109 77.18052639 168.28641024 75.89550781 167.83666992 C73.38477017 166.95686173 70.87565025 166.0728381 68.3671875 165.18652344 C65.56131965 164.1977968 62.75185058 163.22203145 59.9375 162.2578125 C40.64021392 155.62525414 23.21544881 147.84467694 6.71875 135.703125 C4.06977943 133.75653299 1.38067974 131.88634473 -1.34375 130.046875 C-9.6668924 124.3989959 -16.65477071 118.89628534 -23 111 C-23.90707398 109.95451325 -24.81881114 108.91305999 -25.734375 107.875 C-30.83450233 102.05776177 -35.40776703 96.21722855 -39.4296875 89.58203125 C-41.47135762 86.22495676 -43.69701214 83.00666393 -45.93359375 79.77734375 C-47 78 -47 78 -47 76 C-47.66 76 -48.32 76 -49 76 C-68.15654321 40.39971382 -68.15654321 40.39971382 -63.875 22.4375 C-60.23068866 10.68543177 -53.24292627 2.59774932 -42.46484375 -3.4140625 C-28.67075073 -9.81599549 -12.54094814 -8.44243867 0 0 Z " fill="#00CC9D" transform="translate(1504,673)"/>
<path d="M0 0 C1.11955078 0.63421875 1.11955078 0.63421875 2.26171875 1.28125 C11.86233314 7.14919767 18.72598308 15.27021691 21.58203125 26.234375 C22.14958528 29.98977922 22.22422345 33.71084649 22.25 37.5 C22.270625 38.22703125 22.29125 38.9540625 22.3125 39.703125 C22.34479067 44.38527282 21.71664973 48.53564048 20.5859375 53.08203125 C18.70017523 60.72450737 18.02346723 68.36996966 17.375 76.1875 C17.19473908 78.29110636 17.01182729 80.39441311 16.82437134 82.49739075 C16.65773947 84.37561946 16.49928178 86.25456814 16.34130859 88.13354492 C16 91 16 91 15 93 C14.77372082 95.6933508 14.61577375 98.36339299 14.5 101.0625 C14.4390918 102.39498779 14.4390918 102.39498779 14.37695312 103.75439453 C13.90816375 114.85929367 13.69386832 125.97249321 13.4375 137.08383179 C13.19196234 147.68379322 12.94061625 158.28097672 12.5 168.875 C12.44682617 170.24470947 12.44682617 170.24470947 12.39257812 171.64208984 C12.24291709 174.96942214 12.05882866 177.82351403 11 181 C10.79261394 183.27008521 10.63304091 185.54465964 10.5 187.8203125 C10.41667428 189.17317755 10.33334071 190.52604212 10.25 191.87890625 C10.12375065 194.00985716 9.99907462 196.14089407 9.875 198.27197266 C9.75380019 200.33000221 9.62710513 202.38764059 9.5 204.4453125 C9.39171875 206.29406982 9.39171875 206.29406982 9.28125 208.18017578 C9 211 9 211 8 212 C7.71106682 214.3016326 7.48348636 216.61101034 7.28125 218.921875 C7.21844849 219.61887512 7.15564697 220.31587524 7.09094238 221.03399658 C6.88971616 223.27231002 6.69441688 225.51108558 6.5 227.75 C6.30498906 229.9745692 6.10864375 232.19899317 5.90905762 234.42315674 C5.72724528 236.45207278 5.55003316 238.48139947 5.37304688 240.51074219 C5 244 5 244 4.48632812 246.52954102 C3.86626794 249.67933469 3.68992246 252.77616311 3.5 255.98046875 C3.41669862 257.32226761 3.33336433 258.66406443 3.25 260.00585938 C3.12372237 262.10596486 2.99889982 264.2061494 2.875 266.30639648 C2.7536031 268.34382532 2.62702342 270.38088417 2.5 272.41796875 C2.4278125 273.63250732 2.355625 274.8470459 2.28125 276.09838867 C2 279 2 279 1 281 C0.71439834 283.96068734 0.47937885 286.90821883 0.28125 289.875 C0.21844849 290.75526855 0.15564697 291.63553711 0.09094238 292.54248047 C-0.11006896 295.36138656 -0.30567619 298.18062546 -0.5 301 C-0.75561945 304.70869113 -1.01670344 308.41693618 -1.28125 312.125 C-1.338573 312.98335449 -1.395896 313.84170898 -1.45495605 314.72607422 C-1.88719819 320.77439638 -1.88719819 320.77439638 -3 323 C-3.1291935 324.56322318 -3.20234749 326.13127617 -3.24609375 327.69921875 C-3.27727295 328.65401123 -3.30845215 329.60880371 -3.34057617 330.5925293 C-3.37256104 331.61386963 -3.4045459 332.63520996 -3.4375 333.6875 C-4.73631851 366.15796275 -4.73631851 366.15796275 -16.1796875 378.41015625 C-27.81526609 388.57256073 -38.99338298 390.9520141 -53.9609375 390.18603516 C-58.74897538 389.74919549 -62.72431292 388.13784354 -67 386 C-67 385.34 -67 384.68 -67 384 C-68.09828125 383.87431641 -68.09828125 383.87431641 -69.21875 383.74609375 C-75.17101459 382.14934861 -79.49624189 376.45311865 -82.62109375 371.35546875 C-83.84613439 368.93083343 -84.96483153 366.51101107 -86 364 C-86.33612305 363.26370361 -86.67224609 362.52740723 -87.01855469 361.76879883 C-90.66306165 351.48711886 -88.98083841 338.65859888 -88.33081055 327.93920898 C-88.18787287 325.56868382 -88.06064753 323.19769839 -87.93554688 320.82617188 C-87.46119718 312.26361006 -86.65775417 303.82173476 -85.52856445 295.31665039 C-84.38926169 286.39095522 -83.75570354 277.40188559 -83 268.4375 C-82.83362306 266.48890753 -82.6669574 264.54033969 -82.5 262.59179688 C-82.33332896 260.64322954 -82.16666229 258.69466183 -82 256.74609375 C-81.87733765 255.3133461 -81.87733765 255.3133461 -81.75219727 253.85165405 C-81.31461714 248.72875031 -80.88478601 243.60533865 -80.46484375 238.48095703 C-80.28910448 236.37401994 -80.11332451 234.26708623 -79.9375 232.16015625 C-79.81858398 230.67581337 -79.81858398 230.67581337 -79.69726562 229.16148376 C-79.62056641 228.25104813 -79.54386719 227.34061249 -79.46484375 226.40258789 C-79.399021 225.59866104 -79.33319824 224.79473419 -79.26538086 223.96644592 C-79 222 -79 222 -78 220 C-77.71507963 217.29307005 -77.4798222 214.60021905 -77.28125 211.88671875 C-77.21844849 211.08015335 -77.15564697 210.27358795 -77.09094238 209.44258118 C-76.89000882 206.85784062 -76.69452268 204.27273039 -76.5 201.6875 C-76.30509099 199.1130167 -76.10892526 196.53865715 -75.90905762 193.96455383 C-75.78472613 192.36207129 -75.66326292 190.75936292 -75.54504395 189.15641785 C-75.25176601 185.3641249 -74.78901973 181.71809247 -74 178 C-73.87307345 176.61983728 -73.77961373 175.2362123 -73.71875 173.8515625 C-73.68201172 173.02946289 -73.64527344 172.20736328 -73.60742188 171.36035156 C-73.57197266 170.45768555 -73.53652344 169.55501953 -73.5 168.625 C-73.45939453 167.66561523 -73.41878906 166.70623047 -73.37695312 165.71777344 C-73.10140137 158.78446729 -72.91395896 151.85075711 -72.75 144.9140625 C-72.72901245 144.0379129 -72.7080249 143.16176331 -72.68640137 142.25906372 C-72.58118542 137.82859068 -72.48227533 133.39809976 -72.39257812 128.96728516 C-72.35558596 127.31672914 -72.31848156 125.66617563 -72.28125 124.015625 C-72.26094727 122.86859604 -72.26094727 122.86859604 -72.24023438 121.69839478 C-72.16568136 118.5526069 -72.00181684 116.00545051 -71 113 C-70.82426664 110.47821717 -70.6961592 107.97415384 -70.60546875 105.44921875 C-70.53913741 103.88041813 -70.47196274 102.311653 -70.40405273 100.74291992 C-70.36915741 99.91762787 -70.33426208 99.09233582 -70.29830933 98.24203491 C-69.70847935 84.64443146 -68.79773398 71.17435369 -66.9375 57.6875 C-66.76307373 56.41414795 -66.58864746 55.1407959 -66.40893555 53.82885742 C-65.1551621 45.1551621 -65.1551621 45.1551621 -64 44 C-63.67350138 42.00539024 -63.38938875 40.00378842 -63.125 38 C-61.06076322 24.19824165 -55.72544318 11.87835095 -44.52734375 3.05078125 C-31.36436073 -5.9833812 -14.16885999 -8.45255127 0 0 Z " fill="#FEFEFE" transform="translate(1014,438)"/>
<path d="M0 0 C9.60553732 6.50432098 16.82897407 15.41257261 19.3125 26.875 C21.13882208 39.39291591 20.08632472 50.40906408 12.625 61 C6.34383765 68.77667719 -0.15699076 73.81432772 -9.6875 76.875 C-10.65042969 77.23078125 -11.61335937 77.5865625 -12.60546875 77.953125 C-23.05342395 81.07824215 -33.40116616 78.43579967 -42.93359375 73.77734375 C-50.60832862 69.36399719 -56.97427703 62.92031644 -60.6875 54.875 C-60.6875 53.555 -60.6875 52.235 -60.6875 50.875 C-61.3475 50.875 -62.0075 50.875 -62.6875 50.875 C-65.73912304 38.61888795 -64.88187025 24.5901744 -58.40234375 13.71875 C-52.30881229 4.89246488 -44.81708369 -0.80095699 -34.6875 -4.125 C-33.73875 -4.5375 -32.79 -4.95 -31.8125 -5.375 C-20.69615349 -8.04292316 -9.70300522 -5.76032404 0 0 Z " fill="#FEFEFE" transform="translate(1014.6875,167.125)"/>
<path d="M0 0 C0.33 0.99 0.66 1.98 1 3 C-1.64 3.99 -4.28 4.98 -7 6 C-7 5.01 -7 4.02 -7 3 C-4.69 2.01 -2.38 1.02 0 0 Z " fill="#00DCBC" transform="translate(1468,667)"/>
<path d="M0 0 C0.99 0.33 1.98 0.66 3 1 C1.35 2.65 -0.3 4.3 -2 6 C-2.66 5.67 -3.32 5.34 -4 5 C-2.68 3.35 -1.36 1.7 0 0 Z " fill="#00D388" transform="translate(1660,680)"/>
<path d="M0 0 C0 0.99 0 1.98 0 3 C-2.31 3.66 -4.62 4.32 -7 5 C-6.67 4.01 -6.34 3.02 -6 2 C-2.9375 0.8125 -2.9375 0.8125 0 0 Z " fill="#00EFCE" transform="translate(1678,669)"/>
</svg>
